<svg xmlns="http://www.w3.org/2000/svg" width="93" height="98" viewBox="0 0 93 98">
    <g fill="none" fill-rule="evenodd">
        <path fill="#A4D6FF" fill-rule="nonzero" d="M46.5 97.5c-25.404 0-46-20.536-46-45.87 0-25.335 20.596-45.871 46-45.871s46 20.536 46 45.87c0 25.335-20.596 45.871-46 45.871zm0-3c23.75 0 43-19.195 43-42.87 0-23.676-19.25-42.871-43-42.871s-43 19.195-43 42.87c0 23.676 19.25 42.871 43 42.871z"/>
        <path fill="#F9F9F9" d="M25.143 77.513l6.493-6.56 6.493 6.56 6.493-6.56 6.493 6.56 6.493-6.56 6.493 6.56 6.493-6.56 6.493 6.56V2.081l-6.493 6.56L64.1 2.08l-6.493 6.56-6.493-6.56-6.493 6.56-6.493-6.56-6.493 6.56-6.493-6.56z"/>
        <path fill="#A4D6FF" d="M25.143 64.395v13.118l6.493-6.56 6.493 6.56 6.493-6.56 6.493 6.56 6.493-6.56 6.493 6.56 6.493-6.56 6.493 6.56V64.395z" opacity=".5"/>
        <path fill="#2B6BB4" fill-rule="nonzero" d="M34.882 23.26a1.5 1.5 0 1 1 0-3h19.48a1.5 1.5 0 0 1 0 3h-19.48zm25.972 0a1.5 1.5 0 1 1 0-3h6.493a1.5 1.5 0 0 1 0 3h-6.493zm-25.972 9.838a1.5 1.5 0 0 1 0-3h16.233a1.5 1.5 0 0 1 0 3H34.882zm22.726 0a1.5 1.5 0 0 1 0-3h9.74a1.5 1.5 0 0 1 0 3h-9.74zm-22.726 9.839a1.5 1.5 0 0 1 0-3h12.986a1.5 1.5 0 0 1 0 3H34.882zm0 9.839a1.5 1.5 0 0 1 0-3h6.493a1.5 1.5 0 0 1 0 3h-6.493zm0 9.839a1.5 1.5 0 0 1 0-3h9.74a1.5 1.5 0 1 1 0 3h-9.74zm22.726-6.56a1.5 1.5 0 0 1-1.344-.834l-1.624-3.28a1.5 1.5 0 0 1 0-1.33l1.624-3.28a1.5 1.5 0 0 1 1.344-.835H64.1a1.5 1.5 0 0 1 0 3h-5.562l-.88 1.78.88 1.78h5.562a1.5 1.5 0 0 1 1.344.834l1.623 3.28a1.5 1.5 0 0 1 0 1.33l-1.623 3.28a1.5 1.5 0 0 1-1.344.835h-6.493a1.5 1.5 0 0 1 0-3h5.562l.88-1.78-.88-1.78h-5.562zm4.746-8.059a1.5 1.5 0 1 1-3 0v-3.28a1.5 1.5 0 0 1 3 0v3.28zm0 16.399a1.5 1.5 0 1 1-3 0v-3.28a1.5 1.5 0 1 1 3 0v3.28zM26.21 78.568c-.943.953-2.566.285-2.566-1.055V2.081c0-1.34 1.623-2.007 2.566-1.055l5.427 5.482 5.427-5.482a1.5 1.5 0 0 1 2.132 0l5.427 5.482 5.427-5.482a1.5 1.5 0 0 1 2.132 0l5.427 5.482 5.427-5.482a1.5 1.5 0 0 1 2.132 0l5.427 5.482 5.427-5.482c.943-.952 2.566-.285 2.566 1.055v75.432c0 1.34-1.623 2.008-2.566 1.055l-5.427-5.482-5.427 5.482a1.5 1.5 0 0 1-2.132 0l-5.427-5.482-5.427 5.482a1.5 1.5 0 0 1-2.132 0l-5.427-5.482-5.427 5.482a1.5 1.5 0 0 1-2.132 0l-5.427-5.482-5.427 5.482zm.434-4.702l3.927-3.967a1.5 1.5 0 0 1 2.132 0l5.427 5.482 5.427-5.482a1.5 1.5 0 0 1 2.132 0l5.427 5.482 5.427-5.482a1.5 1.5 0 0 1 2.132 0L64.1 75.38l5.427-5.482a1.5 1.5 0 0 1 2.132 0l3.927 3.967V5.729L71.66 9.696a1.5 1.5 0 0 1-2.132 0L64.1 4.213l-5.427 5.483a1.5 1.5 0 0 1-2.132 0l-5.427-5.483-5.427 5.483a1.5 1.5 0 0 1-2.132 0l-5.427-5.483-5.427 5.483a1.5 1.5 0 0 1-2.132 0l-3.927-3.967v68.137z"/>
        <path fill="#F9F9F9" d="M24.415 55.902l-11.867 3.901 2.697 17.277 9.17 4.458 9.17-4.458 2.696-17.277z"/>
        <path fill="#CCE7FF" d="M31.681 74.622l-7.266 3.476-7.267-3.476-1.963 1.398 9.23 4.518 9.23-4.518z"/>
        <path fill="#2B6BB4" fill-rule="nonzero" d="M34.017 63.668l-10.18 10.376a1.5 1.5 0 0 1-2.24-.112l-4.945-6.16a1.5 1.5 0 0 1 2.34-1.878l3.887 4.843L33.13 60.288a1.497 1.497 0 0 1-.532-.075l-8.257-2.731-10.116 3.346 2.366 15.249 7.75 3.792 7.751-3.792 1.925-12.409zm1.978-2.016a1.5 1.5 0 0 1 1.11 1.683L34.936 77.31a1.5 1.5 0 0 1-.823 1.117L25 82.886a1.5 1.5 0 0 1-1.319 0l-9.113-4.459a1.5 1.5 0 0 1-.823-1.117l-2.68-17.277a1.5 1.5 0 0 1 1.011-1.654l11.793-3.901a1.5 1.5 0 0 1 .942 0l8.729 2.887a1.5 1.5 0 0 1 1.029 1.456l1.96-1.997a1.5 1.5 0 0 1 2.14 2.1l-2.675 2.728z"/>
    </g>
</svg>
