<svg xmlns="http://www.w3.org/2000/svg" width="93" height="98" viewBox="0 0 93 98">
    <g fill="none" fill-rule="evenodd">
        <path fill="#A4D6FF" fill-rule="nonzero" d="M46.5 97.5c-25.404 0-46-20.536-46-45.87 0-25.335 20.596-45.871 46-45.871s46 20.536 46 45.87c0 25.335-20.596 45.871-46 45.871zm0-3c23.75 0 43-19.195 43-42.87 0-23.676-19.25-42.871-43-42.871s-43 19.195-43 42.87c0 23.676 19.25 42.871 43 42.871z"/>
        <path fill="#F9F9F9" d="M68.046 54.886v-12.34l10.608-8.814-10.608-10.578V12.577H57.438L46.83 2 36.222 12.577H25.613v12.34l-10.608 8.815 10.608 8.814v12.34L7.933 68.99h15.912l8.84 10.577 8.621-20.713 5.524 6.61 5.526-6.61 8.618 20.713 8.84-10.577h15.912z"/>
        <path fill="#A4D6FF" d="M55.84 42.755l-8.79-4.6-8.79 4.6.776-1.931 13.882-13.845h6.438l-7.033 7.012 3.517 8.764zm-32.084 25.73l13.887-13.898 3.253 3.91-8.46 20.412-8.68-10.423zm45.488 0l-8.68 10.424-8.46-20.413 3.253-3.909 13.887 13.899z" opacity=".5"/>
        <path fill="#2B6BB4" fill-rule="nonzero" d="M44.36 27.492a1.5 1.5 0 0 1-1.345.835h-5.13l4.457 4.527a1.5 1.5 0 0 1 .327 1.602l-1.992 5.058 5.117-2.73a1.5 1.5 0 0 1 1.412 0l5.117 2.73-1.992-5.058a1.5 1.5 0 0 1 .327-1.602l4.457-4.527h-5.13a1.5 1.5 0 0 1-1.347-.84l-2.127-4.342-2.151 4.347zm-2.276-2.165l3.089-6.244c.552-1.116 2.144-1.112 2.692.005l3.055 6.24h7.776c1.331 0 2.003 1.603 1.07 2.552l-6.286 6.384 3.127 7.942c.511 1.297-.87 2.53-2.101 1.873L46.5 39.808l-8.006 4.27c-1.23.657-2.612-.575-2.101-1.872l3.127-7.942-6.285-6.384c-.934-.949-.262-2.553 1.069-2.553h7.78zM40.175 57.91l2.76 1.175-8.684 20.412a1.5 1.5 0 0 1-2.521.387l-8.454-9.897H7.933c-1.427 0-2.048-1.805-.922-2.683l17.815-13.898a1.5 1.5 0 1 1 1.846 2.365L12.295 66.986h11.673a1.5 1.5 0 0 1 1.14.525l7.33 8.582 7.737-18.184zM61.93 79.883a1.5 1.5 0 0 1-2.521-.387l-8.183-19.232 2.258-2.355 7.737 18.184 7.33-8.582a1.5 1.5 0 0 1 1.14-.525h11.673L66.988 55.77a1.5 1.5 0 1 1 1.845-2.365l17.816 13.898c1.125.878.504 2.683-.923 2.683H70.383l-8.453 9.897zM27.233 53.087H38.04a1.5 1.5 0 0 1 1.15.538l7.64 9.14 7.639-9.14a1.5 1.5 0 0 1 1.15-.538h10.807v-10.77a1.5 1.5 0 0 1 .541-1.154l9.281-7.711-9.381-9.355a1.5 1.5 0 0 1-.441-1.062v-9.018h-9.048a1.5 1.5 0 0 1-1.06-.437L46.83 4.118l-9.49 9.462a1.5 1.5 0 0 1-1.059.437h-9.048v10.77a1.5 1.5 0 0 1-.541 1.155l-9.16 7.61 9.16 7.611a1.5 1.5 0 0 1 .541 1.154v10.77zm10.105 3H25.733a1.5 1.5 0 0 1-1.5-1.5V43.021l-10.006-8.315a1.5 1.5 0 0 1 0-2.307l10.006-8.315V12.517a1.5 1.5 0 0 1 1.5-1.5h9.928L45.771.937a1.5 1.5 0 0 1 2.118 0l10.109 10.08h9.928a1.5 1.5 0 0 1 1.5 1.5v9.895L79.533 32.49a1.5 1.5 0 0 1-.1 2.216l-10.007 8.315v11.566a1.5 1.5 0 0 1-1.5 1.5H56.32l-8.34 9.98a1.5 1.5 0 0 1-2.302 0l-8.34-9.98z"/>
    </g>
</svg>
