<svg xmlns="http://www.w3.org/2000/svg" width="93" height="93" viewBox="0 0 93 93">
    <g fill="none" fill-rule="evenodd">
        <path fill="#A4D6FF" fill-rule="nonzero" d="M46.5 92.5c-25.405 0-46-20.595-46-46s20.595-46 46-46 46 20.595 46 46-20.595 46-46 46zm0-3c23.748 0 43-19.252 43-43s-19.252-43-43-43-43 19.252-43 43 19.252 43 43 43z"/>
        <path fill="#F9F9F9" d="M25.134 20.528V36.76l-9.867 4.87v27.596l13.156-1.624 9.595-11.362h3.562l-3.289 9.74 4.934 3.246 6.578-7.84v7.84l6.579 3.246L59.67 56.24h31.248V20.528z"/>
        <path fill="#A4D6FF" d="M43.498 49.747h47.42v6.493h-52.9z" opacity=".5"/>
        <path fill="#2B6BB4" fill-rule="nonzero" d="M26.634 22.028v21.225a1.5 1.5 0 0 1-3 0V20.528a1.5 1.5 0 0 1 1.5-1.5H90.92a1.5 1.5 0 0 1 1.5 1.5V56.24a1.5 1.5 0 0 1-1.5 1.5h-52.9a1.5 1.5 0 0 1 0-3h51.4V22.028H26.634zM54.737 35.26a1.5 1.5 0 0 1 0 3H44.87a1.5 1.5 0 0 1 0-3h9.867zm-16.446 0a1.5 1.5 0 0 1 0 3h-3.29a1.5 1.5 0 1 1 0-3h3.29zm19.735-6.493a1.5 1.5 0 1 1 0 3H35.002a1.5 1.5 0 1 1 0-3h23.024zm9.868 9.493a1.5 1.5 0 0 1-1.5-1.5v-6.493a1.5 1.5 0 0 1 1.5-1.5H84.34a1.5 1.5 0 0 1 1.5 1.5v6.493a1.5 1.5 0 0 1-1.5 1.5H67.894zm14.946-3v-3.493H69.394v3.493H82.84zM54.146 50.814a1.5 1.5 0 1 1-2.107-2.135l6.578-6.493a1.5 1.5 0 0 1 2.508.7l1.127 4.449 3.173-2.088a1.5 1.5 0 0 1 1.878.185l2.851 2.815h10.897a1.5 1.5 0 0 1 0 3H69.539a1.5 1.5 0 0 1-1.054-.433L66.06 48.42 62.14 51a1.5 1.5 0 0 1-2.278-.885L58.86 46.16l-4.714 4.653zM24.47 35.415a1.5 1.5 0 1 1 1.328 2.69l-9.868 4.87a1.5 1.5 0 0 1-1.327-2.69l9.867-4.87zm-.43 17.35a1.5 1.5 0 0 1-1.101-2.79l16.446-6.493a1.5 1.5 0 0 1 1.375.142l4.934 3.246a1.5 1.5 0 0 1 .322 2.22L29.57 68.57a1.5 1.5 0 0 1-.963.521L15.45 70.714a1.5 1.5 0 0 1-.367-2.977l12.573-1.551 14.977-17.739-2.871-1.889-15.722 6.207zm28.931 2.51a1.5 1.5 0 1 1 2.299 1.929L44.372 70.19a1.5 1.5 0 0 1-1.974.288l-4.93-3.246a1.5 1.5 0 0 1-.597-1.732l3.286-9.74a1.5 1.5 0 0 1 2.843.96l-2.916 8.642 2.849 1.876L52.97 55.275zm5.23.667a1.5 1.5 0 1 1 2.94.595l-3.29 16.233a1.5 1.5 0 0 1-2.133 1.047l-6.578-3.246a1.5 1.5 0 0 1-.837-1.345v-7.84a1.5 1.5 0 1 1 3 0v6.907l3.996 1.972L58.2 55.942z"/>
    </g>
</svg>
