<svg xmlns="http://www.w3.org/2000/svg" width="93" height="93" viewBox="0 0 93 93">
    <g fill="none" fill-rule="evenodd">
        <path fill="#A4D6FF" fill-rule="nonzero" d="M46.5 92.5c-25.405 0-46-20.595-46-46s20.595-46 46-46 46 20.595 46 46-20.595 46-46 46zm0-3c23.748 0 43-19.252 43-43s-19.252-43-43-43-43 19.252-43 43 19.252 43 43 43z"/>
        <path fill="#F9F9F9" d="M74.458 59.595l-26.313 19.56-26.314-19.56V33.513l26.314-19.56 26.313 19.56z"/>
        <path fill="#CCE7FF" d="M74.458 59.531L48.145 79.092 21.83 59.532 74.458 33.45z" opacity=".5"/>
        <path fill="#2B6BB4" fill-rule="nonzero" d="M72.958 34.204L48.145 15.758 23.33 34.204v24.573l24.814 18.446 24.813-18.446V34.204zm2.395 26.531L49.04 80.295a1.5 1.5 0 0 1-1.79 0l-26.313-19.56a1.5 1.5 0 0 1-.605-1.204V33.45c0-.474.224-.92.605-1.204l26.314-19.56a1.5 1.5 0 0 1 1.79 0l26.313 19.56c.38.283.605.73.605 1.204V59.53a1.5 1.5 0 0 1-.605 1.204zm-15.552-8.478V40.724L48.145 32.06l-11.657 8.665v11.533l11.657 8.665L59.8 52.257zm2.395 1.958l-13.157 9.78a1.5 1.5 0 0 1-1.79 0l-13.156-9.78a1.5 1.5 0 0 1-.605-1.204V39.97c0-.475.224-.922.605-1.205l13.157-9.78a1.5 1.5 0 0 1 1.79 0l13.156 9.78c.381.283.605.73.605 1.204v13.04a1.5 1.5 0 0 1-.605 1.205zM46.645 13.889a1.5 1.5 0 1 1 3 0v16.3a1.5 1.5 0 0 1-3 0v-16.3zm0 48.902a1.5 1.5 0 0 1 3 0v16.301a1.5 1.5 0 1 1-3 0v-16.3zm13.99-8.436a1.5 1.5 0 1 1 1.333-2.688l13.156 6.52a1.5 1.5 0 0 1-1.332 2.688l-13.157-6.52zm1.333-13.04a1.5 1.5 0 1 1-1.333-2.689l13.157-6.52a1.5 1.5 0 0 1 1.332 2.688l-13.156 6.52zm-26.314-2.689a1.5 1.5 0 1 1-1.332 2.688l-13.157-6.52a1.5 1.5 0 0 1 1.332-2.688l13.157 6.52zm-1.332 13.04a1.5 1.5 0 1 1 1.332 2.689l-13.157 6.52a1.5 1.5 0 1 1-1.332-2.688l13.157-6.52zM13.752 10.63a1.5 1.5 0 0 1 3 0v3.26a1.5 1.5 0 0 1-3 0v-3.26zm0 9.78a1.5 1.5 0 0 1 3 0v3.26a1.5 1.5 0 1 1-3 0v-3.26zm8.079-4.76a1.5 1.5 0 1 1 0 3h-3.29a1.5 1.5 0 0 1 0-3h3.29zm-9.868 0a1.5 1.5 0 0 1 0 3H8.674a1.5 1.5 0 0 1 0-3h3.29zm64.285 53.663a1.5 1.5 0 1 1 3 0v3.26a1.5 1.5 0 0 1-3 0v-3.26zm0 9.78a1.5 1.5 0 0 1 3 0v3.26a1.5 1.5 0 0 1-3 0v-3.26zm8.078-4.76a1.5 1.5 0 0 1 0 3h-3.29a1.5 1.5 0 0 1 0-3h3.29zm-9.868 0a1.5 1.5 0 0 1 0 3H71.17a1.5 1.5 0 1 1 0-3h3.29z"/>
    </g>
</svg>
