<svg xmlns="http://www.w3.org/2000/svg" width="93" height="98" viewBox="0 0 93 98">
    <g fill="none" fill-rule="evenodd">
        <path fill="#A4D6FF" fill-rule="nonzero" d="M46.5 97.5c-25.404 0-46-20.536-46-45.87 0-25.335 20.596-45.871 46-45.871s46 20.536 46 45.87c0 25.335-20.596 45.871-46 45.871zm0-3c23.75 0 43-19.195 43-42.87 0-23.676-19.25-42.871-43-42.871s-43 19.195-43 42.87c0 23.676 19.25 42.871 43 42.871z"/>
        <path fill="#F9F9F9" d="M11.298 31.598l8.15-18.038L47.159 2.081 74.871 13.56l8.15 18.038zM30.858 77.513H63.46V47.996H30.858z"/>
        <path fill="#A4D6FF" d="M47.16 2.081L74.87 13.56l8.151 18.038H47.159zM30.858 54.556H63.46v-6.56H30.858z" opacity=".5"/>
        <path fill="#2B6BB4" fill-rule="nonzero" d="M32.83 32.366a1.5 1.5 0 0 1 2.577-1.536l9.78 16.398a1.5 1.5 0 1 1-2.576 1.537l-9.78-16.399zm26.082-1.536a1.5 1.5 0 0 1 2.576 1.536l-9.78 16.399a1.5 1.5 0 0 1-2.577-1.537l9.78-16.398zm-45.418 1.826a1.5 1.5 0 1 1 2.128-2.115l16.3 16.398a1.5 1.5 0 0 1-2.127 2.115L13.494 32.656zm65.203-2.115a1.5 1.5 0 0 1 2.128 2.115L64.524 49.054a1.5 1.5 0 0 1-2.128-2.115L78.697 30.54zM31.922 68.73a1.5 1.5 0 1 1-2.127-2.114l13.04-13.119a1.5 1.5 0 1 1 2.128 2.115l-13.04 13.119zm13.04 9.84a1.5 1.5 0 1 1-2.127-2.115l19.561-19.678a1.5 1.5 0 1 1 2.128 2.115L44.963 78.57zm-11.41 0a1.5 1.5 0 1 1-2.127-2.115l22.82-22.958a1.5 1.5 0 1 1 2.128 2.115l-22.82 22.958zm-7.297-57.48a1.5 1.5 0 0 1 2.687 1.336l-1.63 3.28a1.5 1.5 0 1 1-2.687-1.336l1.63-3.28zm5.065-3.457a1.5 1.5 0 0 1-2.684-1.34l.88-1.764a1.5 1.5 0 0 1 .402-.499L46.218.913A1.5 1.5 0 1 1 48.1 3.25L32.054 16.163l-.734 1.47zm34.057 4.793a1.5 1.5 0 0 1 2.686-1.336l1.63 3.28a1.5 1.5 0 1 1-2.686 1.335l-1.63-3.28zM46.219 3.25a1.5 1.5 0 1 1 1.88-2.337L64.4 14.03a1.5 1.5 0 0 1 .403.501l.845 1.699a1.5 1.5 0 0 1-2.687 1.335l-.698-1.404L46.22 3.25zm-.56 18.51a1.5 1.5 0 1 1 3 0v3.279a1.5 1.5 0 0 1-3 0v-3.28zm0-19.679a1.5 1.5 0 1 1 3 0V15.2a1.5 1.5 0 1 1-3 0V2.08zm-14.8 53.975v-3H63.46v3H30.858zm49.838-25.958l-6.949-15.38L47.16 3.706 20.57 14.719l-6.949 15.38h67.076zm-70.766.882l8.15-18.038a1.5 1.5 0 0 1 .793-.768L46.585.695a1.5 1.5 0 0 1 1.148 0l27.712 11.48a1.5 1.5 0 0 1 .793.767l8.15 18.038a1.5 1.5 0 0 1-1.367 2.118H11.298A1.5 1.5 0 0 1 9.93 30.98zm20.927 48.033a1.5 1.5 0 0 1-1.5-1.5V47.996a1.5 1.5 0 0 1 1.5-1.5H63.46a1.5 1.5 0 0 1 1.5 1.5v29.517a1.5 1.5 0 0 1-1.5 1.5H30.858zm31.102-3V49.496H32.358v26.517H61.96z"/>
    </g>
</svg>
